<svg version="1.1" id="Layer_1" xmlns="http://www.w3.org/2000/svg" xmlns:xlink="http://www.w3.org/1999/xlink" x="0px" y="0px"
	 width="100%" viewBox="0 0 200 200" enable-background="new 0 0 200 200" xml:space="preserve">
<path fill="#FFFFFE" opacity="1.000000" stroke="none" 
	d="
M110.000000,201.000000 
	C73.355949,201.000000 37.211899,201.000000 1.033923,201.000000 
	C1.033923,134.397644 1.033923,67.795280 1.033923,1.096454 
	C67.560547,1.096454 134.121292,1.096454 200.841003,1.096454 
	C200.841003,67.666367 200.841003,134.333145 200.841003,201.000000 
	C170.795563,201.000000 140.647781,201.000000 110.000000,201.000000 
M133.884445,97.436119 
	C132.865646,96.284348 131.846832,95.132584 130.951233,93.272247 
	C132.354568,90.945625 133.757904,88.618996 135.913818,86.166313 
	C145.627914,83.687248 147.048569,81.855812 147.007538,71.972290 
	C146.990250,67.810349 147.060516,63.647850 147.020645,59.486282 
	C147.004883,57.841084 146.797745,56.197723 146.677750,54.553528 
	C146.115295,54.585861 145.552826,54.618198 144.990356,54.650536 
	C144.990356,59.169426 144.489288,63.757263 145.099533,68.192184 
	C146.210159,76.263565 144.269424,82.098122 135.701797,84.330215 
	C135.428986,84.401291 135.237427,84.784332 134.298019,85.087273 
	C128.945389,88.186302 126.712944,93.143555 125.498383,99.469406 
	C124.170036,101.798050 123.019356,104.115242 125.973434,106.951477 
	C125.974617,107.606880 126.118515,108.300697 125.954124,108.911537 
	C124.782227,113.266022 122.251747,117.669304 126.899467,121.650894 
	C127.338272,122.026817 127.071960,123.225838 126.984230,124.768311 
	C126.170250,126.562134 125.310066,128.336731 124.553429,130.154419 
	C123.496223,132.694183 124.499458,133.907562 127.036613,134.700531 
	C126.341995,136.341370 125.640381,137.979294 124.954163,139.623627 
	C123.380165,143.395294 124.280548,145.984085 127.955521,147.539673 
	C123.939102,148.839478 123.365486,151.239380 124.967140,154.155045 
	C128.174835,151.408859 131.106293,148.899170 134.163635,146.281708 
	C132.719208,145.769333 131.611542,145.376404 131.087982,144.492935 
	C135.567230,140.332565 135.234070,137.392319 130.091751,134.869003 
	C129.517868,134.587402 129.264236,133.653198 129.547470,132.712982 
	C130.061203,132.309387 130.651123,131.972366 131.073563,131.488983 
	C132.104782,130.309006 133.831268,129.048431 133.811279,127.844673 
	C133.793671,126.784950 131.789642,125.756798 130.660233,124.717545 
	C130.068283,124.172852 129.470718,123.634262 129.168655,122.491333 
	C131.328201,118.506317 134.088165,114.704834 135.386780,110.456642 
	C136.009613,108.419075 133.868210,105.536530 133.444153,102.667374 
	C133.658920,102.124275 133.873688,101.581177 134.652054,100.920616 
	C134.949554,100.596008 135.247055,100.271400 135.544556,99.946793 
	C135.054321,99.614296 134.564087,99.281792 133.995346,98.529282 
	C133.995346,98.529282 133.911499,98.110306 133.884445,97.436119 
M106.024422,108.130295 
	C106.024422,105.814613 106.024422,103.498940 106.024422,99.934525 
	C102.192703,102.076393 99.588516,103.532089 96.344147,105.059166 
	C95.458221,105.639488 94.572296,106.219803 93.030266,106.882141 
	C91.898926,107.539169 90.767578,108.196190 88.993057,108.929634 
	C87.895958,109.567902 86.798859,110.206169 85.319618,110.881920 
	C85.319618,110.881920 84.976974,111.055229 84.473618,110.987381 
	C84.305099,111.003578 84.136574,111.019783 84.049294,110.176819 
	C83.995834,108.454216 83.942375,106.731613 84.029762,104.158775 
	C83.986229,102.439255 83.942688,100.719734 84.025406,98.205963 
	C83.985237,97.136826 83.945068,96.067680 84.027466,94.148697 
	C83.986023,92.434402 83.944580,90.720108 84.031891,88.211037 
	C83.987305,87.142639 83.942719,86.074234 84.025589,84.331223 
	C83.989517,83.876579 83.953453,83.421936 84.062431,82.517151 
	C84.062431,82.517151 84.061867,82.044212 84.037552,82.043839 
	C84.037552,82.043839 84.073372,82.056908 84.710205,81.895821 
	C86.157410,80.965706 87.604622,80.035591 89.636024,79.053101 
	C90.102982,78.736862 90.569939,78.420624 91.526337,77.917931 
	C91.709816,77.627090 91.893303,77.336243 92.542221,77.004539 
	C92.542221,77.004539 92.992371,76.879364 93.668121,76.976952 
	C94.793747,76.343422 95.919380,75.709900 97.742249,74.998192 
	C98.167213,74.810287 98.592186,74.622375 99.538177,74.388153 
	C99.850471,73.962006 100.162773,73.535858 101.002068,73.169800 
	C101.334038,73.056450 101.666016,72.943100 102.589500,72.735283 
	C103.410889,72.194481 104.232269,71.653687 105.636383,71.080338 
	C106.115288,70.783508 106.594193,70.486679 107.564606,69.968880 
	C107.744484,69.673866 107.924362,69.378845 108.095146,69.154282 
	C108.095146,69.154282 108.164932,69.167549 108.808533,69.141068 
	C109.878555,68.417053 110.948578,67.693031 112.751930,67.024002 
	C114.847870,66.056229 116.943810,65.088463 119.755234,64.006310 
	C123.555183,62.028175 127.355125,60.050041 131.831131,57.975895 
	C133.623245,57.014656 135.415359,56.053413 137.892227,55.036907 
	C139.158340,54.458939 140.424454,53.880966 143.241440,52.595047 
	C135.284744,48.954754 128.721619,45.952042 121.893440,42.538548 
	C121.668175,42.273586 121.381691,42.140350 120.450516,41.788311 
	C118.636124,40.915707 116.821732,40.043106 114.470062,38.832760 
	C112.621933,39.493195 110.773804,40.153629 108.201515,40.904072 
	C105.105042,42.554512 102.008568,44.204952 98.220222,45.972363 
	C96.426620,46.953281 94.633026,47.934200 92.290100,48.971119 
	C91.846832,49.268093 91.403572,49.565071 90.375999,49.920170 
	C89.903412,50.232563 89.430824,50.544952 88.473907,50.901569 
	C88.473907,50.901569 88.002800,51.022354 87.303314,51.075672 
	C85.175278,52.358128 83.047234,53.640583 80.925148,54.982170 
	C80.925148,54.982170 80.943382,54.928566 80.391319,55.079895 
	C80.107880,55.332676 79.824440,55.585461 79.287109,55.725224 
	C79.287109,55.725224 79.038490,55.849407 78.310921,55.893398 
	C76.483322,56.887680 74.655724,57.881966 72.154076,58.927101 
	C70.768509,59.671619 69.382942,60.416138 67.308914,61.192924 
	C65.173325,62.392002 63.037743,63.591076 60.329880,64.858940 
	C59.853271,65.152122 59.376663,65.445305 58.316959,65.821663 
	C57.849869,66.144516 57.382778,66.467361 56.133865,67.023857 
	C55.803345,70.016853 55.472824,73.009857 55.019516,76.830238 
	C55.059101,78.220581 55.098682,79.610924 55.016987,81.882561 
	C55.052795,84.250916 55.088608,86.619263 55.011089,89.856148 
	C55.404385,92.727440 53.546528,96.119827 57.642765,98.039871 
	C66.511269,102.196854 75.245888,106.639450 84.051445,111.720551 
	C84.314262,112.660492 84.577080,113.600441 84.490074,115.245094 
	C84.466194,116.796989 84.442307,118.348885 84.158005,120.617905 
	C84.195427,122.746117 84.232849,124.874321 84.126869,127.665581 
	C84.174889,128.112579 84.222900,128.559586 84.117332,129.853882 
	C84.165489,131.574371 84.213646,133.294861 84.111389,135.893387 
	C84.447937,138.733292 83.769066,143.154343 85.298584,144.136597 
	C91.580544,148.170822 98.534531,151.158600 105.862518,154.843765 
	C105.862518,151.205078 105.862518,148.603012 105.988144,145.150604 
	C105.947159,143.434006 105.906174,141.717407 105.990234,139.150726 
	C105.950005,137.435287 105.909782,135.719833 105.992523,133.237198 
	C105.716110,131.805405 105.439697,130.373611 105.232834,128.408234 
	C105.458305,127.940498 105.683784,127.472755 106.019516,126.170471 
	C105.976700,124.770111 105.933876,123.369743 106.011703,121.081413 
	C105.960190,118.389542 105.908676,115.697662 105.984138,112.212654 
	C105.956329,111.144341 105.928520,110.076019 106.024422,108.130295 
z"/>
<path fill="#EDB2AC" opacity="1.000000" stroke="none" 
	d="
M131.155075,58.071907 
	C127.355125,60.050041 123.555183,62.028175 119.384537,63.648346 
	C119.437317,60.279579 118.072716,58.654026 115.442253,57.066681 
	C109.749924,53.631645 104.401299,49.627037 98.912094,45.855396 
	C102.008568,44.204952 105.105042,42.554512 108.617325,41.237835 
	C110.030693,43.003819 110.768341,44.759380 112.073708,45.808689 
	C116.283951,49.193100 120.618759,52.441551 125.083565,55.480904 
	C126.868294,56.695820 129.117371,57.228611 131.155075,58.071907 
z"/>
<path fill="#769DC4" opacity="1.000000" stroke="none" 
	d="
M84.035263,110.965240 
	C75.245888,106.639450 66.511269,102.196854 57.642765,98.039871 
	C53.546528,96.119827 55.404385,92.727440 55.263199,89.305923 
	C55.753864,88.552116 55.915024,88.299202 56.352440,88.032990 
	C60.373936,90.782364 63.927204,93.672203 67.746895,96.151604 
	C70.654625,98.039032 73.900627,99.405327 76.998070,101.001740 
	C77.000000,101.000000 76.996735,101.003830 77.038719,101.324478 
	C77.721413,102.096039 78.362114,102.546967 79.204727,103.271912 
	C80.900734,104.033630 82.394821,104.521324 83.888916,105.009018 
	C83.942375,106.731613 83.995834,108.454216 84.025269,110.588516 
	C84.001251,111.000221 84.035263,110.965240 84.035263,110.965240 
z"/>
<path fill="#ECAA9E" opacity="1.000000" stroke="none" 
	d="
M122.158508,42.949326 
	C128.721619,45.952042 135.284744,48.954754 143.241440,52.595047 
	C140.424454,53.880966 139.158340,54.458939 137.148804,55.034920 
	C128.423859,55.948700 127.809364,55.544781 123.188560,46.345295 
	C116.385742,47.186546 115.041389,46.007568 115.007339,39.170502 
	C116.821732,40.043106 118.636124,40.915707 120.871643,42.166286 
	C121.530510,42.787796 121.819084,42.922817 122.158508,42.949326 
z"/>
<path fill="#F6CC6F" opacity="1.000000" stroke="none" 
	d="
M105.053658,71.112892 
	C104.232269,71.653687 103.410889,72.194481 102.232323,72.455994 
	C99.874733,70.814835 97.784149,69.566910 95.891373,68.069023 
	C90.878235,64.101768 85.950645,60.026405 80.983826,55.727417 
	C80.966888,55.283375 80.955139,55.105968 80.943382,54.928566 
	C80.943382,54.928566 80.925148,54.982170 81.325760,54.980591 
	C84.486954,54.854153 87.054550,53.716015 89.716652,56.510803 
	C92.437973,59.367764 96.596397,60.809097 99.572403,63.485409 
	C101.846672,65.530640 103.258301,68.535110 105.053658,71.112892 
z"/>
<path fill="#9B7CAF" opacity="1.000000" stroke="none" 
	d="
M105.862518,146.000931 
	C105.862518,148.603012 105.862518,151.205078 105.862518,154.843765 
	C98.534531,151.158600 91.580544,148.170822 85.298584,144.136597 
	C83.769066,143.154343 84.447937,138.733292 84.513397,135.529205 
	C89.030678,138.480255 93.101257,141.853409 97.284737,145.080215 
	C98.808586,146.255600 100.599121,147.086105 102.271851,148.067368 
	C104.842796,149.575531 104.990059,147.879425 105.212448,146.000244 
	C105.429138,145.999496 105.862518,146.000931 105.862518,146.000931 
z"/>
<path fill="#F9FACC" opacity="1.000000" stroke="none" 
	d="
M132.978683,103.036667 
	C133.868210,105.536530 136.009613,108.419075 135.386780,110.456642 
	C134.088165,114.704834 131.328201,118.506317 128.788391,122.877670 
	C127.983093,123.523575 127.558060,123.783142 127.133026,124.042709 
	C127.071960,123.225838 127.338272,122.026817 126.899467,121.650894 
	C122.251747,117.669304 124.782227,113.266022 125.954124,108.911537 
	C126.118515,108.300697 125.974617,107.606880 126.296204,106.479401 
	C127.486458,105.033615 128.353943,104.059906 129.443451,102.882935 
	C130.193008,101.936432 130.720551,101.193207 131.284637,100.398499 
	C131.970596,101.466766 132.474640,102.251717 132.978683,103.036667 
M128.326874,111.676079 
	C129.018417,111.954262 129.709976,112.232437 130.401535,112.510612 
	C130.471939,111.927536 130.542358,111.344460 130.612762,110.761391 
	C129.941986,110.865570 129.271225,110.969749 128.326874,111.676079 
z"/>
<path fill="#91BE9E" opacity="1.000000" stroke="none" 
	d="
M55.142303,76.002853 
	C55.472824,73.009857 55.803345,70.016853 56.550869,67.330276 
	C56.619461,71.359604 58.123482,73.677086 61.588726,75.433022 
	C64.751450,77.035660 67.258644,79.884827 70.327995,81.730095 
	C74.722702,84.372139 79.365990,86.600700 83.903137,89.005814 
	C83.944580,90.720108 83.986023,92.434402 83.624252,94.533661 
	C75.519264,89.209160 67.860275,83.440155 60.075626,77.846001 
	C58.700043,76.857491 56.800098,76.598656 55.142303,76.002853 
z"/>
<path fill="#F0BAA2" opacity="1.000000" stroke="none" 
	d="
M98.566162,45.913879 
	C104.401299,49.627037 109.749924,53.631645 115.442253,57.066681 
	C118.072716,58.654026 119.437317,60.279579 119.026794,63.705544 
	C116.943810,65.088463 114.847870,66.056229 112.487656,66.781601 
	C112.418381,66.272598 112.673439,66.089729 113.297119,65.837143 
	C113.480774,64.058693 113.928200,62.005661 113.104027,60.903591 
	C111.675247,58.993050 109.629944,57.376961 107.538025,56.163475 
	C103.125267,53.603710 98.515297,51.383923 93.698616,49.006866 
	C93.220467,48.964432 93.029945,48.939774 92.839424,48.915119 
	C94.633026,47.934200 96.426620,46.953281 98.566162,45.913879 
z"/>
<path fill="#99C78D" opacity="1.000000" stroke="none" 
	d="
M83.967514,88.608429 
	C79.365990,86.600700 74.722702,84.372139 70.327995,81.730095 
	C67.258644,79.884827 64.751450,77.035660 61.588726,75.433022 
	C58.123482,73.677086 56.619461,71.359604 56.941780,67.213448 
	C57.382778,66.467361 57.849869,66.144516 58.639618,66.196991 
	C59.543270,67.813934 59.794949,69.489174 60.761440,70.223167 
	C65.290962,73.663063 69.933876,76.972252 74.704140,80.069633 
	C77.611435,81.957390 80.823151,83.376328 83.898132,85.005844 
	C83.942719,86.074234 83.987305,87.142639 83.967514,88.608429 
z"/>
<path fill="#88B6AB" opacity="1.000000" stroke="none" 
	d="
M55.080910,76.416550 
	C56.800098,76.598656 58.700043,76.857491 60.075626,77.846001 
	C67.860275,83.440155 75.519264,89.209160 83.562973,94.958580 
	C83.945068,96.067680 83.985237,97.136826 83.614960,98.560318 
	C75.499329,93.475563 67.836090,87.975029 60.049568,82.654953 
	C58.676712,81.716972 56.788490,81.533287 55.138268,81.001266 
	C55.098682,79.610924 55.059101,78.220581 55.080910,76.416550 
z"/>
<path fill="#A3CD7B" opacity="1.000000" stroke="none" 
	d="
M83.961861,84.668533 
	C80.823151,83.376328 77.611435,81.957390 74.704140,80.069633 
	C69.933876,76.972252 65.290962,73.663063 60.761440,70.223167 
	C59.794949,69.489174 59.543270,67.813934 58.931168,66.155411 
	C59.376663,65.445305 59.853271,65.152122 60.820072,65.124931 
	C63.636993,66.850693 66.078728,68.157280 68.267639,69.800621 
	C73.598648,73.802895 78.812401,77.961349 84.073372,82.056908 
	C84.073372,82.056908 84.037552,82.043839 83.874695,82.103317 
	C83.633385,82.254959 83.470757,82.399193 83.490280,82.430756 
	C83.609695,82.623795 83.770424,82.791290 83.917381,82.967293 
	C83.953453,83.421936 83.989517,83.876579 83.961861,84.668533 
z"/>
<path fill="#E8D06E" opacity="1.000000" stroke="none" 
	d="
M80.989014,55.994057 
	C85.950645,60.026405 90.878235,64.101768 95.891373,68.069023 
	C97.784149,69.566910 99.874733,70.814835 101.936569,72.503235 
	C101.666016,72.943100 101.334038,73.056450 100.457092,73.177963 
	C99.613800,73.602249 99.315475,74.018356 99.017151,74.434464 
	C98.592186,74.622375 98.167213,74.810287 97.184677,74.760269 
	C91.118690,70.365585 85.750938,66.001144 80.044556,62.136726 
	C77.037941,60.100613 76.842575,58.354202 79.038490,55.849407 
	C79.038490,55.849407 79.287109,55.725224 79.776489,55.829948 
	C80.506927,55.954472 80.747971,55.974262 80.989014,55.994057 
z"/>
<path fill="#83AEB5" opacity="1.000000" stroke="none" 
	d="
M55.077629,81.441910 
	C56.788490,81.533287 58.676712,81.716972 60.049568,82.654953 
	C67.836090,87.975029 75.499329,93.475563 83.551834,98.957443 
	C83.942688,100.719734 83.986229,102.439255 83.959335,104.583893 
	C82.394821,104.521324 80.900734,104.033630 79.162506,102.951241 
	C78.277824,101.905640 77.637276,101.454735 76.996735,101.003830 
	C76.996735,101.003830 77.000000,101.000000 76.965088,100.654770 
	C70.469948,94.767151 64.009712,89.224770 56.643875,82.905449 
	C56.305065,85.579567 56.151924,86.788254 55.998779,87.996948 
	C55.915024,88.299202 55.753864,88.552116 55.319862,88.871658 
	C55.088608,86.619263 55.052795,84.250916 55.077629,81.441910 
z"/>
<path fill="#ECADA4" opacity="1.000000" stroke="none" 
	d="
M114.738701,39.001633 
	C115.041389,46.007568 116.385742,47.186546 123.188560,46.345295 
	C127.809364,55.544781 128.423859,55.948700 136.806427,55.062553 
	C135.415359,56.053413 133.623245,57.014656 131.493103,58.023903 
	C129.117371,57.228611 126.868294,56.695820 125.083565,55.480904 
	C120.618759,52.441551 116.283951,49.193100 112.073708,45.808689 
	C110.768341,44.759380 110.030693,43.003819 108.979401,41.192833 
	C110.773804,40.153629 112.621933,39.493195 114.738701,39.001633 
z"/>
<path fill="#B6D077" opacity="1.000000" stroke="none" 
	d="
M84.391785,81.976364 
	C78.812401,77.961349 73.598648,73.802895 68.267639,69.800621 
	C66.078728,68.157280 63.636993,66.850693 61.106209,65.090538 
	C63.037743,63.591076 65.173325,62.392002 67.658936,61.387234 
	C68.008957,61.581543 68.020439,62.003925 67.841141,62.260216 
	C67.659805,63.459457 67.258026,64.817680 67.728111,65.270180 
	C69.364372,66.845253 71.286606,68.128426 73.129265,69.482910 
	C78.012825,73.072655 82.543015,77.328728 89.005936,78.276978 
	C89.028854,78.737381 89.040344,78.921432 89.051834,79.105469 
	C87.604622,80.035591 86.157410,80.965706 84.391785,81.976364 
z"/>
<path fill="#F6C782" opacity="1.000000" stroke="none" 
	d="
M105.345016,71.096619 
	C103.258301,68.535110 101.846672,65.530640 99.572403,63.485409 
	C96.596397,60.809097 92.437973,59.367764 89.716652,56.510803 
	C87.054550,53.716015 84.486954,54.854153 81.322784,54.951027 
	C83.047234,53.640583 85.175278,52.358128 87.754097,51.215397 
	C88.456001,51.189198 88.707123,51.023273 88.958237,50.857346 
	C89.430824,50.544952 89.903412,50.232563 90.679581,50.306801 
	C91.341530,51.902641 91.314674,53.637390 92.124359,54.230892 
	C95.802551,56.927044 99.632835,59.444889 103.572975,61.744938 
	C106.526520,63.469067 108.349342,65.629128 108.164932,69.167549 
	C108.164932,69.167549 108.095146,69.154282 107.846344,69.214355 
	C107.422729,69.579567 107.247917,69.884712 107.073105,70.189850 
	C106.594193,70.486679 106.115288,70.783508 105.345016,71.096619 
z"/>
<path fill="#7397C8" opacity="1.000000" stroke="none" 
	d="
M84.418427,119.900780 
	C84.442307,118.348885 84.466194,116.796989 84.712257,114.506195 
	C84.962654,113.510040 84.990868,113.252777 85.234756,112.887360 
	C85.717781,112.579536 85.902168,112.320763 86.303970,112.147949 
	C92.016052,116.769928 96.611969,122.458969 104.000847,124.374359 
	C104.004692,125.496529 104.007080,126.244637 104.006050,127.326691 
	C104.002304,128.105728 104.001976,128.550797 103.587967,128.997498 
	C100.104622,129.227371 97.926407,128.415329 95.606834,125.820351 
	C93.219887,123.150009 89.267723,121.878792 85.605118,119.968842 
	C84.945992,119.928482 84.682205,119.914627 84.418427,119.900780 
z"/>
<path fill="#878EC0" opacity="1.000000" stroke="none" 
	d="
M84.288216,120.259338 
	C84.682205,119.914627 84.945992,119.928482 85.609238,120.339333 
	C87.048798,122.059624 87.914513,123.584854 89.164871,124.664696 
	C91.875626,127.005753 95.334625,128.691071 97.465714,131.437500 
	C99.938576,134.624390 102.387794,135.357819 105.869560,134.004395 
	C105.909782,135.719833 105.950005,137.435287 105.552963,139.574799 
	C100.457123,137.039017 95.839310,134.011765 91.116974,131.157410 
	C89.549751,130.210144 87.713936,129.707275 86.000458,129.000610 
	C86.000000,129.000000 85.998779,128.998779 85.968002,128.699768 
	C85.381577,127.934669 84.825920,127.468597 84.270264,127.002533 
	C84.232849,124.874321 84.195427,122.746117 84.288216,120.259338 
z"/>
<path fill="#DCD271" opacity="1.000000" stroke="none" 
	d="
M78.674706,55.871403 
	C76.842575,58.354202 77.037941,60.100613 80.044556,62.136726 
	C85.750938,66.001144 91.118690,70.365585 96.836052,74.799355 
	C95.919380,75.709900 94.793747,76.343422 93.261093,76.592049 
	C88.182030,72.584297 83.413437,69.077057 78.879028,65.289444 
	C76.639206,63.418507 74.831406,61.030365 72.828125,58.876244 
	C74.655724,57.881966 76.483322,56.887680 78.674706,55.871403 
z"/>
<path fill="#D0D26E" opacity="1.000000" stroke="none" 
	d="
M72.491104,58.901672 
	C74.831406,61.030365 76.639206,63.418507 78.879028,65.289444 
	C83.413437,69.077057 88.182030,72.584297 92.923218,76.543259 
	C92.992371,76.879364 92.542221,77.004539 92.069244,77.126175 
	C91.409813,77.533340 91.223351,77.818871 91.036896,78.104393 
	C90.569939,78.420624 90.102982,78.736862 89.343933,79.079285 
	C89.040344,78.921432 89.028854,78.737381 88.953430,77.932251 
	C81.933136,72.208748 74.976791,67.106339 68.020439,62.003925 
	C68.020439,62.003925 68.008957,61.581543 68.003166,61.371098 
	C69.382942,60.416138 70.768509,59.671619 72.491104,58.901672 
z"/>
<path fill="#9580B7" opacity="1.000000" stroke="none" 
	d="
M104.995750,146.001007 
	C104.990059,147.879425 104.842796,149.575531 102.271851,148.067368 
	C100.599121,147.086105 98.808586,146.255600 97.284737,145.080215 
	C93.101257,141.853409 89.030678,138.480255 84.588608,135.090179 
	C84.213646,133.294861 84.165489,131.574371 84.481720,129.428848 
	C85.230339,129.002136 85.614555,129.000458 85.998779,128.998779 
	C85.998779,128.998779 86.000000,129.000000 86.004646,129.369385 
	C86.249275,130.507767 86.244591,131.588913 86.766624,131.998077 
	C92.796906,136.724533 98.906914,141.349274 104.995750,146.001007 
z"/>
<path fill="#91A0BA" opacity="1.000000" stroke="none" 
	d="
M128.862091,133.021637 
	C129.264236,133.653198 129.517868,134.587402 130.091751,134.869003 
	C135.234070,137.392319 135.567230,140.332565 130.697723,144.731796 
	C130.307480,144.970657 130.107513,144.965714 129.790924,145.109131 
	C129.138855,145.843536 128.803391,146.434525 128.460846,147.010391 
	C128.453751,146.995255 128.489502,146.979477 128.489502,146.979477 
	C124.280548,145.984085 123.380165,143.395294 124.954163,139.623627 
	C125.640381,137.979294 126.341995,136.341370 127.322449,134.243988 
	C128.026230,133.532181 128.444153,133.276901 128.862091,133.021637 
z"/>
<path fill="#8E87BC" opacity="1.000000" stroke="none" 
	d="
M105.212448,146.000244 
	C98.906914,141.349274 92.796906,136.724533 86.766624,131.998077 
	C86.244591,131.588913 86.249275,130.507767 86.005104,129.369995 
	C87.713936,129.707275 89.549751,130.210144 91.116974,131.157410 
	C95.839310,134.011765 100.457123,137.039017 105.490440,139.999832 
	C105.906174,141.717407 105.947159,143.434006 105.925331,145.575775 
	C105.862518,146.000931 105.429138,145.999496 105.212448,146.000244 
z"/>
<path fill="#F4C28E" opacity="1.000000" stroke="none" 
	d="
M108.486732,69.154312 
	C108.349342,65.629128 106.526520,63.469067 103.572975,61.744938 
	C99.632835,59.444889 95.802551,56.927044 92.124359,54.230892 
	C91.314674,53.637390 91.341530,51.902641 90.971725,50.277740 
	C91.403572,49.565071 91.846832,49.268093 92.564758,48.943119 
	C93.029945,48.939774 93.220467,48.964432 93.708214,49.375229 
	C95.080948,51.049076 95.984367,52.548462 97.262161,53.587399 
	C102.441719,57.798752 107.736359,61.868557 112.988548,65.990585 
	C112.673439,66.089729 112.418381,66.272598 112.120987,66.754105 
	C110.948578,67.693031 109.878555,68.417053 108.486732,69.154312 
z"/>
<path fill="#7C90C4" opacity="1.000000" stroke="none" 
	d="
M105.931046,133.620789 
	C102.387794,135.357819 99.938576,134.624390 97.465714,131.437500 
	C95.334625,128.691071 91.875626,127.005753 89.164871,124.664696 
	C87.914513,123.584854 87.048798,122.059624 86.004562,120.365845 
	C89.267723,121.878792 93.219887,123.150009 95.606834,125.820351 
	C97.926407,128.415329 100.104622,129.227371 103.878654,128.990356 
	C104.776451,128.968353 104.969872,128.955078 105.163284,128.941818 
	C105.439697,130.373611 105.716110,131.805405 105.931046,133.620789 
z"/>
<path fill="#EBC5BA" opacity="1.000000" stroke="none" 
	d="
M135.007996,85.021942 
	C135.237427,84.784332 135.428986,84.401291 135.701797,84.330215 
	C144.269424,82.098122 146.210159,76.263565 145.099533,68.192184 
	C144.489288,63.757263 144.990356,59.169426 144.990356,54.650536 
	C145.552826,54.618198 146.115295,54.585861 146.677750,54.553528 
	C146.797745,56.197723 147.004883,57.841084 147.020645,59.486282 
	C147.060516,63.647850 146.990250,67.810349 147.007538,71.972290 
	C147.048569,81.855812 145.627914,83.687248 135.483231,85.912285 
	C135.037766,85.446159 135.022873,85.234055 135.007996,85.021942 
z"/>
<path fill="#7DA8BB" opacity="1.000000" stroke="none" 
	d="
M104.009476,126.992744 
	C104.007080,126.244637 104.004692,125.496529 103.966568,124.025818 
	C100.637871,120.385925 97.542099,117.193039 93.983543,114.646980 
	C91.557816,112.911423 88.485153,112.080078 85.701759,110.844437 
	C86.798859,110.206169 87.895958,109.567902 89.717270,108.940506 
	C96.975662,111.647827 102.627693,115.391190 105.891052,121.969383 
	C105.933876,123.369743 105.976700,124.770111 105.648247,126.585602 
	C104.854477,126.998077 104.431976,126.995407 104.009476,126.992744 
z"/>
<path fill="#A3BDC0" opacity="1.000000" stroke="none" 
	d="
M129.204773,132.867310 
	C128.444153,133.276901 128.026230,133.532181 127.379059,133.871796 
	C124.499458,133.907562 123.496223,132.694183 124.553429,130.154419 
	C125.310066,128.336731 126.170250,126.562134 127.058624,124.405502 
	C127.558060,123.783142 127.983093,123.523575 128.641907,123.178459 
	C129.470718,123.634262 130.068283,124.172852 130.660233,124.717545 
	C131.789642,125.756798 133.793671,126.784950 133.811279,127.844673 
	C133.831268,129.048431 132.104782,130.309006 131.073563,131.488983 
	C130.651123,131.972366 130.061203,132.309387 129.204773,132.867310 
z"/>
<path fill="#87B1B2" opacity="1.000000" stroke="none" 
	d="
M105.951378,121.525398 
	C102.627693,115.391190 96.975662,111.647827 90.038857,108.902298 
	C90.767578,108.196190 91.898926,107.539169 93.701744,107.003723 
	C98.201202,109.085464 102.029182,111.045631 105.857162,113.005791 
	C105.908676,115.697662 105.960190,118.389542 105.951378,121.525398 
z"/>
<path fill="#74A1C5" opacity="1.000000" stroke="none" 
	d="
M85.510689,110.863174 
	C88.485153,112.080078 91.557816,112.911423 93.983543,114.646980 
	C97.542099,117.193039 100.637871,120.385925 103.965111,123.651756 
	C96.611969,122.458969 92.016052,116.769928 86.057800,112.148705 
	C85.511269,112.004372 85.019127,112.015785 85.010391,111.775566 
	C85.001656,111.535347 84.976974,111.055229 84.976974,111.055229 
	C84.976974,111.055229 85.319618,110.881920 85.510689,110.863174 
z"/>
<path fill="#E7D7AB" opacity="1.000000" stroke="none" 
	d="
M134.653015,85.054611 
	C135.022873,85.234055 135.037766,85.446159 135.106934,85.975311 
	C133.757904,88.618996 132.354568,90.945625 130.609055,93.803703 
	C129.847427,95.562721 129.427979,96.790283 129.002808,98.009842 
	C128.997086,98.001839 129.015854,98.000786 128.767365,98.148354 
	C128.034637,98.885490 127.550407,99.475060 126.948090,99.835350 
	C126.555534,99.407272 126.281075,99.208466 126.006607,99.009666 
	C126.712944,93.143555 128.945389,88.186302 134.653015,85.054611 
z"/>
<path fill="#92BAA8" opacity="1.000000" stroke="none" 
	d="
M105.920654,112.609222 
	C102.029182,111.045631 98.201202,109.085464 94.029800,106.962708 
	C94.572296,106.219803 95.458221,105.639488 97.034004,105.033783 
	C100.449478,106.341507 103.175095,107.674606 105.900711,109.007706 
	C105.928520,110.076019 105.956329,111.144341 105.920654,112.609222 
z"/>
<path fill="#A29EB3" opacity="1.000000" stroke="none" 
	d="
M130.107513,144.965714 
	C130.107513,144.965714 130.307480,144.970657 130.405670,144.977066 
	C131.611542,145.376404 132.719208,145.769333 134.163635,146.281708 
	C131.106293,148.899170 128.174835,151.408859 124.967140,154.155045 
	C123.365486,151.239380 123.939102,148.839478 128.222504,147.259583 
	C128.489502,146.979477 128.453751,146.995255 128.850250,146.939758 
	C129.533676,146.244751 129.820587,145.605240 130.107513,144.965714 
z"/>
<path fill="#9FC3A0" opacity="1.000000" stroke="none" 
	d="
M105.962570,108.569000 
	C103.175095,107.674606 100.449478,106.341507 97.354095,104.998093 
	C99.588516,103.532089 102.192703,102.076393 106.024422,99.934525 
	C106.024422,103.498940 106.024422,105.814613 105.962570,108.569000 
z"/>
<path fill="#DBD69E" opacity="1.000000" stroke="none" 
	d="
M133.211426,102.852020 
	C132.474640,102.251717 131.970596,101.466766 131.284637,100.398499 
	C130.720551,101.193207 130.193008,101.936432 129.139694,102.852570 
	C128.412201,103.017204 128.210480,103.008934 128.052246,102.636162 
	C128.402420,100.848030 128.709137,99.424408 129.015854,98.000786 
	C129.015854,98.000786 128.997086,98.001839 129.412384,98.040054 
	C131.188950,98.088951 132.550217,98.099632 133.911499,98.110306 
	C133.911499,98.110306 133.995346,98.529282 134.005920,99.087547 
	C134.040482,100.109901 134.064468,100.573982 134.088440,101.038071 
	C133.873688,101.581177 133.658920,102.124275 133.211426,102.852020 
z"/>
<path fill="#D1D599" opacity="1.000000" stroke="none" 
	d="
M128.008774,103.000671 
	C128.210480,103.008934 128.412201,103.017204 128.917679,103.055832 
	C128.353943,104.059906 127.486458,105.033615 126.274475,106.089104 
	C123.019356,104.115242 124.170036,101.798050 125.752495,99.239532 
	C126.281075,99.208466 126.555534,99.407272 126.905304,100.142929 
	C126.828491,101.544518 126.676384,102.409241 126.524277,103.273972 
	C127.019104,103.182877 127.513939,103.091774 128.008774,103.000671 
z"/>
<path fill="#FCF9CD" opacity="1.000000" stroke="none" 
	d="
M133.897980,97.773216 
	C132.550217,98.099632 131.188950,98.088951 129.418106,98.048065 
	C129.427979,96.790283 129.847427,95.562721 130.547455,94.157990 
	C131.846832,95.132584 132.865646,96.284348 133.897980,97.773216 
z"/>
<path fill="#FCF9CD" opacity="1.000000" stroke="none" 
	d="
M134.370255,100.979340 
	C134.064468,100.573982 134.040482,100.109901 134.045166,99.297546 
	C134.564087,99.281792 135.054321,99.614296 135.544556,99.946793 
	C135.247055,100.271400 134.949554,100.596008 134.370255,100.979340 
z"/>
<path fill="#8E87BC" opacity="1.000000" stroke="none" 
	d="
M85.968002,128.699768 
	C85.614555,129.000458 85.230339,129.002136 84.558517,129.005188 
	C84.222900,128.559586 84.174889,128.112579 84.198563,127.334061 
	C84.825920,127.468597 85.381577,127.934669 85.968002,128.699768 
z"/>
<path fill="#878EC0" opacity="1.000000" stroke="none" 
	d="
M84.725296,111.021301 
	C84.976974,111.055229 85.001656,111.535347 85.005783,112.020401 
	C85.009918,112.505463 85.019073,112.995522 85.019073,112.995522 
	C84.990868,113.252777 84.962654,113.510040 84.887169,114.153839 
	C84.577080,113.600441 84.314262,112.660492 84.043350,111.342896 
	C84.035263,110.965240 84.001251,111.000221 83.984650,111.018105 
	C84.136574,111.019783 84.305099,111.003578 84.725296,111.021301 
z"/>
<path fill="#74A1C5" opacity="1.000000" stroke="none" 
	d="
M104.006050,127.326691 
	C104.431976,126.995407 104.854477,126.998077 105.593117,127.002884 
	C105.683784,127.472755 105.458305,127.940498 105.198059,128.675018 
	C104.969872,128.955078 104.776451,128.968353 104.292343,128.988739 
	C104.001976,128.550797 104.002304,128.105728 104.006050,127.326691 
z"/>
<path fill="#DCD271" opacity="1.000000" stroke="none" 
	d="
M99.277664,74.411308 
	C99.315475,74.018356 99.613800,73.602249 100.193596,73.147919 
	C100.162773,73.535858 99.850471,73.962006 99.277664,74.411308 
z"/>
<path fill="#99C78D" opacity="1.000000" stroke="none" 
	d="
M83.989906,82.742218 
	C83.770424,82.791290 83.609695,82.623795 83.490280,82.430756 
	C83.470757,82.399193 83.633385,82.254959 83.886848,82.103500 
	C84.061867,82.044212 84.062431,82.517151 83.989906,82.742218 
z"/>
<path fill="#B6D077" opacity="1.000000" stroke="none" 
	d="
M91.281616,78.011162 
	C91.223351,77.818871 91.409813,77.533340 91.836525,77.146606 
	C91.893303,77.336243 91.709816,77.627090 91.281616,78.011162 
z"/>
<path fill="#F4C28E" opacity="1.000000" stroke="none" 
	d="
M107.318863,70.079369 
	C107.247917,69.884712 107.422729,69.579567 107.850891,69.179123 
	C107.924362,69.378845 107.744484,69.673866 107.318863,70.079369 
z"/>
<path fill="#DCD271" opacity="1.000000" stroke="none" 
	d="
M80.983826,55.727417 
	C80.747971,55.974262 80.506927,55.954472 79.903435,55.886459 
	C79.824440,55.585461 80.107880,55.332676 80.667351,55.004230 
	C80.955139,55.105968 80.966888,55.283375 80.983826,55.727417 
z"/>
<path fill="#F4C28E" opacity="1.000000" stroke="none" 
	d="
M88.716080,50.879463 
	C88.707123,51.023273 88.456001,51.189198 88.103836,51.188736 
	C88.002800,51.022354 88.473907,50.901569 88.716080,50.879463 
z"/>
<path fill="#ECADA4" opacity="1.000000" stroke="none" 
	d="
M122.025970,42.743935 
	C121.819084,42.922817 121.530510,42.787796 121.163376,42.341545 
	C121.381691,42.140350 121.668175,42.273586 122.025970,42.743935 
z"/>
<path fill="#7BA8BD" opacity="1.000000" stroke="none" 
	d="
M56.352440,88.032990 
	C56.151924,86.788254 56.305065,85.579567 56.643875,82.905449 
	C64.009712,89.224770 70.469948,94.767151 76.963165,100.656509 
	C73.900627,99.405327 70.654625,98.039032 67.746895,96.151604 
	C63.927204,93.672203 60.373936,90.782364 56.352440,88.032990 
z"/>
<path fill="#7BA8BD" opacity="1.000000" stroke="none" 
	d="
M77.038719,101.324478 
	C77.637276,101.454735 78.277824,101.905640 78.960594,102.677216 
	C78.362114,102.546967 77.721413,102.096039 77.038719,101.324478 
z"/>
<path fill="#FFFFFE" opacity="1.000000" stroke="none" 
	d="
M128.463654,111.375008 
	C129.271225,110.969749 129.941986,110.865570 130.612762,110.761383 
	C130.542358,111.344460 130.471939,111.927536 130.401520,112.510612 
	C129.709976,112.232437 129.018417,111.954262 128.463654,111.375008 
z"/>
<path fill="#F3BE99" opacity="1.000000" stroke="none" 
	d="
M113.297119,65.837143 
	C107.736359,61.868557 102.441719,57.798752 97.262161,53.587399 
	C95.984367,52.548462 95.080948,51.049076 93.995834,49.393005 
	C98.515297,51.383923 103.125267,53.603710 107.538025,56.163475 
	C109.629944,57.376961 111.675247,58.993050 113.104027,60.903591 
	C113.928200,62.005661 113.480774,64.058693 113.297119,65.837143 
z"/>
<path fill="#C4D270" opacity="1.000000" stroke="none" 
	d="
M67.841141,62.260216 
	C74.976791,67.106339 81.933136,72.208748 88.942001,77.655884 
	C82.543015,77.328728 78.012825,73.072655 73.129265,69.482910 
	C71.286606,68.128426 69.364372,66.845253 67.728111,65.270180 
	C67.258026,64.817680 67.659805,63.459457 67.841141,62.260216 
z"/>
<path fill="#7C90C4" opacity="1.000000" stroke="none" 
	d="
M85.234756,112.887360 
	C85.019073,112.995522 85.009918,112.505463 85.014526,112.260620 
	C85.019127,112.015785 85.511269,112.004372 85.757446,112.003616 
	C85.902168,112.320763 85.717781,112.579536 85.234756,112.887360 
z"/>
<path fill="#FFFFFE" opacity="1.000000" stroke="none" 
	d="
M129.790924,145.109131 
	C129.820587,145.605240 129.533676,146.244751 128.857330,146.954895 
	C128.803391,146.434525 129.138855,145.843536 129.790924,145.109131 
z"/>
<path fill="#FCF9CD" opacity="1.000000" stroke="none" 
	d="
M128.052246,102.636169 
	C127.513939,103.091774 127.019104,103.182877 126.524277,103.273972 
	C126.676384,102.409241 126.828491,101.544518 127.023392,100.372208 
	C127.550407,99.475060 128.034637,98.885490 128.767365,98.148354 
	C128.709137,99.424408 128.402420,100.848030 128.052246,102.636169 
z"/>
</svg>